<?xml version="1.0" encoding="UTF-8"?>
<svg xmlns="http://www.w3.org/2000/svg" xmlns:xlink="http://www.w3.org/1999/xlink" viewBox="0 0 112.3 27.77">
  <defs>
    <style>
      .cls-1 {
        filter: url(#drop-shadow-2);
      }

      .cls-2 {
        fill: #4f46e5;
      }

      .cls-3 {
        fill: url(#radial-gradient);
        mix-blend-mode: multiply;
      }

      .cls-4, .cls-5 {
        fill: #fff;
      }

      .cls-6 {
        isolation: isolate;
      }

      .cls-5 {
        filter: url(#drop-shadow-1);
      }

      .cls-7 {
        fill: url(#linear-gradient);
      }
    </style>
    <radialGradient id="radial-gradient" cx="4744.14" cy="-636.17" fx="4744.14" fy="-636.17" r="19.36" gradientTransform="translate(2682.68 -141.26) rotate(-180) scale(.56 .25)" gradientUnits="userSpaceOnUse">
      <stop offset="0" stop-color="#5045e5"/>
      <stop offset="1" stop-color="#8f34ea" stop-opacity="0"/>
    </radialGradient>
    <filter id="drop-shadow-1" x="2.88" y="4.06" width="23" height="23" filterUnits="userSpaceOnUse">
      <feOffset dx="1" dy="1"/>
      <feGaussianBlur result="blur" stdDeviation="1"/>
      <feFlood flood-color="#1e04a0" flood-opacity=".75"/>
      <feComposite in2="blur" operator="in"/>
      <feComposite in="SourceGraphic"/>
    </filter>
    <linearGradient id="linear-gradient" x1="4751.81" y1="3725.73" x2="4737.27" y2="3740.27" gradientTransform="translate(2682.68 2113.65) rotate(-180) scale(.56)" gradientUnits="userSpaceOnUse">
      <stop offset="0" stop-color="#ff2d00"/>
      <stop offset=".68" stop-color="#fff"/>
      <stop offset="1" stop-color="#fff"/>
    </linearGradient>
    <filter id="drop-shadow-2" x="8.88" y="8.06" width="12" height="15" filterUnits="userSpaceOnUse">
      <feOffset dx="1" dy="1"/>
      <feGaussianBlur result="blur-2" stdDeviation="1"/>
      <feFlood flood-color="#1e04a0" flood-opacity=".75"/>
      <feComposite in2="blur-2" operator="in"/>
      <feComposite in="SourceGraphic"/>
    </filter>
  </defs>
  <g class="cls-6">
    <g id="Layer_2" data-name="Layer 2">
      <g id="Layer_1-2" data-name="Layer 1">
        <path class="cls-2" d="M.84,7.04C1.57,4.36,4.36,1.57,7.04.84,8.69.43,10.89,0,13.88,0c2.99,0,5.2.43,6.84.84,2.68.73,5.47,3.52,6.2,6.2.41,1.64.83,3.85.84,6.84,0,2.99-.43,5.2-.84,6.84-.73,2.68-3.52,5.47-6.2,6.2-1.64.41-3.85.83-6.84.84-2.99,0-5.2-.43-6.84-.84-2.68-.73-5.47-3.52-6.2-6.2-.41-1.64-.83-3.85-.84-6.84,0-2.99.43-5.2.84-6.84Z"/>
        <path class="cls-3" d="M3.88,18.61c.57-.95,2.76-1.95,4.87-2.2,1.78-.2,3.58-.3,5.37-.3,1.79,0,3.59.1,5.37.3,2.11.26,4.29,1.25,4.87,2.2.32.58.65,1.37.65,2.43,0,1.06-.34,1.84-.66,2.43-.57.95-2.76,1.94-4.87,2.2-1.78.2-3.58.3-5.37.3-1.79,0-3.59-.1-5.37-.3-2.11-.26-4.29-1.25-4.87-2.2-.32-.58-.65-1.37-.66-2.43,0-1.06.34-1.84.66-2.43Z"/>
        <g>
          <path class="cls-5" d="M13.89,6.14c-4.26,0-7.73,3.47-7.73,7.73,0,1.84.65,3.52,1.72,4.85l-2.29,2.29c-.39.39-.39,1.02,0,1.41.2.2.45.29.71.29s.51-.1.71-.29l2.33-2.33c1.28.94,2.85,1.5,4.56,1.5,4.26,0,7.73-3.47,7.73-7.73s-3.47-7.73-7.73-7.73ZM13.89,19.6c-3.16,0-5.73-2.57-5.73-5.73s2.57-5.73,5.73-5.73,5.73,2.57,5.73,5.73-2.57,5.73-5.73,5.73Z"/>
          <path class="cls-7" d="M13.88,8.06c-3.19,0-5.78,2.59-5.78,5.79,0,3.19,2.59,5.78,5.79,5.78,3.19,0,5.78-2.59,5.78-5.79,0-1.53-.61-3.01-1.69-4.09-1.08-1.09-2.56-1.7-4.09-1.69"/>
          <g class="cls-1">
            <path class="cls-4" d="M15.17,10.82c.39.18.69.44.9.76.21.33.32.7.32,1.13,0,.17-.04.35-.11.54-.07.19-.17.38-.31.57-.13.19-.29.36-.47.52-.23.2-.39.38-.49.55-.1.17-.15.34-.15.51h-2.16c0-.34.07-.65.21-.93.14-.28.36-.55.67-.82l.03-.03c.21-.21.37-.38.47-.53.1-.15.15-.28.15-.38,0-.1-.02-.18-.05-.25s-.08-.13-.14-.16-.13-.06-.21-.06-.14.03-.21.08c-.06.06-.11.13-.14.24-.03.1-.05.22-.05.36h-2.16c0-.47.11-.89.32-1.25.21-.36.51-.64.9-.83.39-.19.83-.29,1.34-.29s.95.09,1.34.27ZM12.99,17.82c-.22-.2-.32-.44-.32-.72s.11-.52.32-.72c.22-.2.48-.3.79-.3s.56.1.78.3c.21.2.32.44.32.72s-.11.52-.32.72c-.22.2-.47.3-.78.3s-.57-.1-.79-.3Z"/>
          </g>
        </g>
        <g>
          <path d="M32.64,21.48l1.57-1.89c.51.42,1.09.77,1.73,1.04.65.27,1.32.41,2.02.41,1.42,0,2.56-.47,3.43-1.42.87-.95,1.3-2.3,1.3-4.07V6.23l.71.76h-6.64v-2.36h8.4v10.92c0,1.61-.31,3.01-.92,4.19-.61,1.18-1.47,2.09-2.56,2.72-1.09.63-2.33.95-3.72.95-2.15,0-3.93-.64-5.33-1.92Z"/>
          <path d="M51.05,22.47c-1.06-.62-1.9-1.46-2.52-2.52-.62-1.06-.93-2.23-.93-3.51s.31-2.45.93-3.51c.62-1.06,1.46-1.9,2.52-2.52,1.06-.62,2.21-.93,3.45-.93s2.27.3,3.18.91,1.6,1.44,2.07,2.49c.47,1.06.71,2.25.71,3.56s-.24,2.5-.71,3.56c-.47,1.06-1.16,1.89-2.07,2.49-.91.6-1.97.91-3.18.91s-2.39-.31-3.45-.93ZM57.09,20.57c.74-.42,1.33-1,1.76-1.73s.64-1.53.64-2.39-.21-1.65-.64-2.39-1.02-1.31-1.76-1.73c-.74-.42-1.55-.63-2.43-.63s-1.67.21-2.39.62-1.29.98-1.72,1.72c-.43.74-.64,1.54-.64,2.42s.21,1.66.64,2.4c.43.74,1.01,1.32,1.73,1.73.73.41,1.53.62,2.4.62s1.66-.21,2.4-.63ZM59.5,9.88h2.34v13.13h-2.34v-13.13Z"/>
          <path d="M67.58,22.47c-1.07-.62-1.91-1.47-2.53-2.53-.62-1.07-.93-2.23-.93-3.49s.31-2.42.93-3.49c.62-1.07,1.47-1.91,2.53-2.53,1.07-.62,2.23-.93,3.49-.93,1.05,0,2.03.21,2.94.64.91.43,1.7,1.03,2.36,1.8l-1.79,1.39c-.4-.49-.91-.87-1.51-1.16-.6-.28-1.26-.42-1.98-.42-.86,0-1.64.21-2.35.62-.71.41-1.27.98-1.69,1.69-.42.72-.63,1.51-.63,2.39s.21,1.65.63,2.38c.42.73.98,1.3,1.69,1.71s1.49.62,2.35.62c.72,0,1.38-.14,1.98-.41.6-.27,1.11-.66,1.51-1.17l1.79,1.39c-.67.77-1.45,1.37-2.36,1.8-.91.43-1.89.64-2.94.64-1.26,0-2.42-.31-3.49-.93Z"/>
          <path d="M78.35,4.63h2.34v18.38h-2.34V4.63ZM87.21,13.33c-.24-.52-.58-.91-1.04-1.18-.46-.27-.97-.41-1.55-.41-.74,0-1.4.18-1.99.55-.6.37-1.07.87-1.42,1.51-.35.64-.52,1.31-.52,2.01h-1.02c0-1.1.23-2.14.7-3.11.46-.97,1.11-1.75,1.94-2.34.83-.59,1.77-.88,2.82-.88.93,0,1.75.24,2.48.71.73.47,1.29,1.14,1.68,2,.39.86.59,1.86.59,2.99v7.82h-2.31v-7.82c0-.72-.12-1.33-.35-1.85Z"/>
          <path d="M95.58,22.47c-1.06-.62-1.9-1.46-2.52-2.52-.62-1.06-.93-2.23-.93-3.51s.31-2.45.93-3.51c.62-1.06,1.46-1.9,2.52-2.52,1.06-.62,2.21-.93,3.45-.93s2.27.3,3.18.91,1.6,1.44,2.07,2.49c.47,1.06.71,2.25.71,3.56s-.24,2.5-.71,3.56c-.47,1.06-1.16,1.89-2.07,2.49-.91.6-1.97.91-3.18.91s-2.39-.31-3.45-.93ZM101.62,20.57c.74-.42,1.33-1,1.76-1.73s.64-1.53.64-2.39-.21-1.65-.64-2.39-1.02-1.31-1.76-1.73c-.74-.42-1.55-.63-2.43-.63s-1.67.21-2.39.62-1.29.98-1.72,1.72c-.43.74-.64,1.54-.64,2.42s.21,1.66.64,2.4c.43.74,1.01,1.32,1.73,1.73.73.41,1.53.62,2.4.62s1.66-.21,2.4-.63ZM104.03,9.88h2.34v13.13h-2.34v-13.13Z"/>
          <path d="M109.64,7c-.3-.31-.45-.67-.45-1.09s.15-.78.45-1.09.67-.46,1.1-.46c.4,0,.76.15,1.08.46.32.31.47.67.47,1.09s-.16.78-.47,1.09c-.31.31-.67.46-1.08.46-.44,0-.81-.15-1.1-.46ZM109.59,9.88h2.31v13.13h-2.31v-13.13Z"/>
        </g>
      </g>
    </g>
  </g>
</svg>