<?xml version="1.0" encoding="UTF-8"?>
<svg id="Layer_1" xmlns="http://www.w3.org/2000/svg" version="1.1" xmlns:xlink="http://www.w3.org/1999/xlink" viewBox="0 0 32 32">
  <!-- Generator: Adobe Illustrator 30.1.0, SVG Export Plug-In . SVG Version: 2.1.1 Build 136)  -->
  <defs>
    <style>
      .st0 {
        fill: #4f46e5;
      }

      .st1 {
        fill: #fff;
      }

      .st2, .st3 {
        isolation: isolate;
      }

      .st3 {
        fill: url(#radial-gradient);
        mix-blend-mode: multiply;
      }

      .st4 {
        fill: url(#linear-gradient);
      }
    </style>
    <radialGradient id="radial-gradient" cx="3405.9" cy="1332.4" fx="3405.9" fy="1332.4" r="22.2" gradientTransform="translate(1929.9 -309.6) rotate(-180) scale(.6 -.3)" gradientUnits="userSpaceOnUse">
      <stop offset="0" stop-color="#5045e5"/>
      <stop offset="1" stop-color="#8f34ea" stop-opacity="0"/>
    </radialGradient>
    <linearGradient id="linear-gradient" x1="3411.4" y1="-3352.4" x2="3394.6" y2="-3369.2" gradientTransform="translate(1923.1 1896.5) rotate(-180) scale(.6 -.6)" gradientUnits="userSpaceOnUse">
      <stop offset="0" stop-color="#ff2d00"/>
      <stop offset=".7" stop-color="#fff"/>
      <stop offset="1" stop-color="#fff"/>
    </linearGradient>
  </defs>
  <g class="st2">
    <g id="Layer_2">
      <g id="Layer_1-2">
        <path class="st0" d="M1,8.1C1.8,5,5,1.8,8.1,1c1.9-.5,4.4-1,7.9-1s6,.5,7.9,1c3.1.8,6.3,4.1,7.1,7.1.5,1.9,1,4.4,1,7.9,0,3.4-.5,6-1,7.9-.8,3.1-4.1,6.3-7.1,7.1-1.9.5-4.4,1-7.9,1-3.4,0-6-.5-7.9-1-3.1-.8-6.3-4.1-7.1-7.1-.5-1.9-1-4.4-1-7.9,0-3.4.5-6,1-7.9Z"/>
        <path class="st3" d="M4.5,21.5c.7-1.1,3.2-2.2,5.6-2.5,2.1-.2,4.1-.3,6.2-.3s4.1.1,6.2.3c2.4.3,4.9,1.4,5.6,2.5.4.7.7,1.6.7,2.8s-.4,2.1-.8,2.8c-.7,1.1-3.2,2.2-5.6,2.5-2.1.2-4.1.3-6.2.3s-4.1-.1-6.2-.3c-2.4-.3-4.9-1.4-5.6-2.5-.4-.7-.7-1.6-.8-2.8,0-1.2.4-2.1.8-2.8h0Z"/>
        <g>
          <path class="st1" d="M16,7.1c-4.9,0-8.9,4-8.9,8.9s.7,4.1,2,5.6l-2.6,2.6c-.4.4-.4,1.2,0,1.6.2.2.5.3.8.3s.6-.1.8-.3l2.7-2.7c1.5,1.1,3.3,1.7,5.3,1.7,4.9,0,8.9-4,8.9-8.9s-4-8.9-8.9-8.9h0ZM16,22.6c-3.6,0-6.6-3-6.6-6.6s3-6.6,6.6-6.6,6.6,3,6.6,6.6-3,6.6-6.6,6.6Z"/>
          <path class="st4" d="M16,9.3c-3.7,0-6.7,3-6.7,6.7s3,6.7,6.7,6.7,6.7-3,6.7-6.7-.7-3.5-1.9-4.7c-1.2-1.3-3-2-4.7-1.9"/>
          <path class="st1" d="M17.5,12.5c.4.2.8.5,1,.9.2.4.4.8.4,1.3s0,.4-.1.6-.2.4-.4.7c-.1.2-.3.4-.5.6-.3.2-.4.4-.6.6-.1.2-.2.4-.2.6h-2.5c0-.4,0-.7.2-1.1.2-.3.4-.6.8-.9h0c.2-.3.4-.5.5-.6s.2-.3.2-.4,0-.2,0-.3,0-.1-.2-.2-.1,0-.2,0-.2,0-.2,0c0,0-.1.1-.2.3,0,.1,0,.3,0,.4h-2.5c0-.5.1-1,.4-1.4s.6-.7,1-1c.4-.2,1-.3,1.5-.3s1.1.1,1.5.3ZM15,20.5c-.3-.2-.4-.5-.4-.8s.1-.6.4-.8c.3-.2.6-.3.9-.3s.6.1.9.3c.2.2.4.5.4.8s-.1.6-.4.8c-.3.2-.5.3-.9.3s-.7-.1-.9-.3Z"/>
        </g>
      </g>
    </g>
  </g>
</svg>